STARTFONT 2.1
FONT -DEC-Terminal-Medium-R-Wide--19-140-100-100-C-140-iso8859-9
SIZE 14 100 100
FONTBOUNDINGBOX 14 20 0 -5

STARTPROPERTIES 24
FOUNDRY "Monotype"
FAMILY_NAME "VT"
WEIGHT_NAME "Regular"
SLANT "R"
SETWIDTH_NAME "Wide"
ADD_STYLE_NAME ""
PIXEL_SIZE 19
POINT_SIZE 140
RESOLUTION_X 100
RESOLUTION_Y 100
SPACING "C"
AVERAGE_WIDTH 140
CHARSET_REGISTRY "iso8859"
CHARSET_ENCODING "9"
FACE_NAME "VT Wide ISO Latin5"
_DEC_DEVICE_FONTNAMES "PS=vt-wide-isolatin5"
COPYRIGHT "Copyright (c) 1993 Monotype Typography Ltd."
CAP_HEIGHT 11
X_HEIGHT 8
WEIGHT 10
QUAD_WIDTH 14
DEFAULT_CHAR 160
FONT_DESCENT 5
FONT_ASCENT 15
ENDPROPERTIES

CHARS 191

STARTCHAR space
ENCODING 32
SWIDTH 723 0
DWIDTH 14 0
BBX 14 20 0 -5
BITMAP
0000
0000
0000
0000
0000
0000
0000
0000
0000
0000
0000
0000
0000
0000
0000
0000
0000
0000
0000
0000
ENDCHAR

STARTCHAR exclam
ENCODING 33
SWIDTH 723 0
DWIDTH 14 0
BBX 14 20 0 -5
BITMAP
0000
0000
0000
0000
0300
0300
0300
0300
0300
0300
0300
0000
0300
0FC0
0300
0000
0000
0000
0000
0000
ENDCHAR

STARTCHAR quotedbl
ENCODING 34
SWIDTH 723 0
DWIDTH 14 0
BBX 14 20 0 -5
BITMAP
0000
0000
0000
0000
0CC0
0CC0
0CC0
0CC0
0000
0000
0000
0000
0000
0000
0000
0000
0000
0000
0000
0000
ENDCHAR

STARTCHAR numbersign
ENCODING 35
SWIDTH 723 0
DWIDTH 14 0
BBX 14 20 0 -5
BITMAP
0000
0000
0000
0000
0CC0
0CC0
0CC0
0CC0
0CC0
7FF0
1980
1980
7FE0
1980
1980
1980
1980
0000
0000
0000
ENDCHAR

STARTCHAR dollar
ENCODING 36
SWIDTH 723 0
DWIDTH 14 0
BBX 14 20 0 -5
BITMAP
0000
0000
0000
0300
0300
1FB0
3870
3030
3800
1F00
01E0
0030
3030
3870
37E0
0300
0300
0300
0000
0000
ENDCHAR

STARTCHAR percent
ENCODING 37
SWIDTH 723 0
DWIDTH 14 0
BBX 14 20 0 -5
BITMAP
0000
0000
0000
0000
7E00
C300
C300
C300
7EF8
0300
7DF8
030C
030C
030C
01F8
0000
0000
0000
0000
0000
ENDCHAR

STARTCHAR ampersand
ENCODING 38
SWIDTH 723 0
DWIDTH 14 0
BBX 14 20 0 -5
BITMAP
0000
0000
0000
0000
07C0
0CC0
0C00
0C00
0600
1E30
3320
31E0
30C0
39E0
1F30
0000
0000
0000
0000
0000
ENDCHAR

STARTCHAR quoteright
ENCODING 39
SWIDTH 723 0
DWIDTH 14 0
BBX 14 20 0 -5
BITMAP
0000
0000
0000
0000
0380
0700
0600
0C00
0000
0000
0000
0000
0000
0000
0000
0000
0000
0000
0000
0000
ENDCHAR

STARTCHAR parenleft
ENCODING 40
SWIDTH 723 0
DWIDTH 14 0
BBX 14 20 0 -5
BITMAP
0000
0000
00C0
0180
0300
0600
0600
0C00
0C00
0C00
0C00
0C00
0C00
0600
0600
0300
0180
00C0
0000
0000
ENDCHAR

STARTCHAR parenright
ENCODING 41
SWIDTH 723 0
DWIDTH 14 0
BBX 14 20 0 -5
BITMAP
0000
0000
0C00
0600
0300
0180
0180
00C0
00C0
00C0
00C0
00C0
00C0
0180
0180
0300
0600
0C00
0000
0000
ENDCHAR

STARTCHAR asterisk
ENCODING 42
SWIDTH 723 0
DWIDTH 14 0
BBX 14 20 0 -5
BITMAP
0000
0000
0000
0000
0000
0000
0300
3330
0FC0
0300
0CC0
3030
0000
0000
0000
0000
0000
0000
0000
0000
ENDCHAR

STARTCHAR plus
ENCODING 43
SWIDTH 723 0
DWIDTH 14 0
BBX 14 20 0 -5
BITMAP
0000
0000
0000
0000
0000
0000
0300
0300
0300
3FF0
0300
0300
0300
0000
0000
0000
0000
0000
0000
0000
ENDCHAR

STARTCHAR comma
ENCODING 44
SWIDTH 723 0
DWIDTH 14 0
BBX 14 20 0 -5
BITMAP
0000
0000
0000
0000
0000
0000
0000
0000
0000
0000
0000
0000
0000
03C0
0700
0E00
1800
0000
0000
0000
ENDCHAR

STARTCHAR minus
ENCODING 45
SWIDTH 723 0
DWIDTH 14 0
BBX 14 20 0 -5
BITMAP
0000
0000
0000
0000
0000
0000
0000
0000
0000
0000
3FF0
0000
0000
0000
0000
0000
0000
0000
0000
0000
ENDCHAR

STARTCHAR period
ENCODING 46
SWIDTH 723 0
DWIDTH 14 0
BBX 14 20 0 -5
BITMAP
0000
0000
0000
0000
0000
0000
0000
0000
0000
0000
0000
0000
0300
0FC0
0300
0000
0000
0000
0000
0000
ENDCHAR

STARTCHAR slash
ENCODING 47
SWIDTH 723 0
DWIDTH 14 0
BBX 14 20 0 -5
BITMAP
0000
0000
0000
0030
0030
0070
0060
00C0
01C0
0180
0380
0300
0600
0E00
0C00
0000
0000
0000
0000
0000
ENDCHAR

STARTCHAR zero
ENCODING 48
SWIDTH 723 0
DWIDTH 14 0
BBX 14 20 0 -5
BITMAP
0000
0000
0000
0000
0FC0
1860
3030
3030
3030
3030
3030
3030
3030
1860
0FC0
0000
0000
0000
0000
0000
ENDCHAR

STARTCHAR one
ENCODING 49
SWIDTH 723 0
DWIDTH 14 0
BBX 14 20 0 -5
BITMAP
0000
0000
0000
0000
0300
3F00
0300
0300
0300
0300
0300
0300
0300
0300
3FF0
0000
0000
0000
0000
0000
ENDCHAR

STARTCHAR two
ENCODING 50
SWIDTH 723 0
DWIDTH 14 0
BBX 14 20 0 -5
BITMAP
0000
0000
0000
0000
0FC0
3060
3030
0030
0060
00E0
0180
0700
0C00
3830
3FF0
0000
0000
0000
0000
0000
ENDCHAR

STARTCHAR three
ENCODING 51
SWIDTH 723 0
DWIDTH 14 0
BBX 14 20 0 -5
BITMAP
0000
0000
0000
0000
0FC0
3060
0030
0030
0060
03C0
0060
0030
0030
3060
0FC0
0000
0000
0000
0000
0000
ENDCHAR

STARTCHAR four
ENCODING 52
SWIDTH 723 0
DWIDTH 14 0
BBX 14 20 0 -5
BITMAP
0000
0000
0000
0000
01C0
03C0
06C0
0CC0
18C0
30C0
60C0
7FF0
00C0
00C0
03F0
0000
0000
0000
0000
0000
ENDCHAR

STARTCHAR five
ENCODING 53
SWIDTH 723 0
DWIDTH 14 0
BBX 14 20 0 -5
BITMAP
0000
0000
0000
0000
3FF0
3000
3000
3000
3FC0
3060
0030
0030
0030
3060
0FC0
0000
0000
0000
0000
0000
ENDCHAR

STARTCHAR six
ENCODING 54
SWIDTH 723 0
DWIDTH 14 0
BBX 14 20 0 -5
BITMAP
0000
0000
0000
0000
03F0
0E00
1800
1000
37C0
3860
3030
3030
3030
1860
0FC0
0000
0000
0000
0000
0000
ENDCHAR

STARTCHAR seven
ENCODING 55
SWIDTH 723 0
DWIDTH 14 0
BBX 14 20 0 -5
BITMAP
0000
0000
0000
0000
3FF0
3030
0060
0060
00C0
0180
0180
0300
0600
0600
0C00
0000
0000
0000
0000
0000
ENDCHAR

STARTCHAR eight
ENCODING 56
SWIDTH 723 0
DWIDTH 14 0
BBX 14 20 0 -5
BITMAP
0000
0000
0000
0000
0FC0
1860
3030
3030
1860
0FC0
1860
3030
3030
1860
0FC0
0000
0000
0000
0000
0000
ENDCHAR

STARTCHAR nine
ENCODING 57
SWIDTH 723 0
DWIDTH 14 0
BBX 14 20 0 -5
BITMAP
0000
0000
0000
0000
0FC0
1860
3030
3030
3030
1870
0FB0
0020
0060
01C0
3F00
0000
0000
0000
0000
0000
ENDCHAR

STARTCHAR colon
ENCODING 58
SWIDTH 723 0
DWIDTH 14 0
BBX 14 20 0 -5
BITMAP
0000
0000
0000
0000
0000
0000
0000
0300
0FC0
0300
0000
0000
0300
0FC0
0300
0000
0000
0000
0000
0000
ENDCHAR

STARTCHAR semicolon
ENCODING 59
SWIDTH 723 0
DWIDTH 14 0
BBX 14 20 0 -5
BITMAP
0000
0000
0000
0000
0000
0000
0000
0300
0FC0
0300
0000
0000
0000
03C0
0700
0E00
1800
0000
0000
0000
ENDCHAR

STARTCHAR less
ENCODING 60
SWIDTH 723 0
DWIDTH 14 0
BBX 14 20 0 -5
BITMAP
0000
0000
0000
0000
0000
0030
00C0
0300
0C00
3000
0C00
0300
00C0
0030
0000
0000
0000
0000
0000
0000
ENDCHAR

STARTCHAR equal
ENCODING 61
SWIDTH 723 0
DWIDTH 14 0
BBX 14 20 0 -5
BITMAP
0000
0000
0000
0000
0000
0000
0000
3FF0
0000
0000
3FF0
0000
0000
0000
0000
0000
0000
0000
0000
0000
ENDCHAR

STARTCHAR greater
ENCODING 62
SWIDTH 723 0
DWIDTH 14 0
BBX 14 20 0 -5
BITMAP
0000
0000
0000
0000
0000
3000
0C00
0300
00C0
0030
00C0
0300
0C00
3000
0000
0000
0000
0000
0000
0000
ENDCHAR

STARTCHAR question
ENCODING 63
SWIDTH 723 0
DWIDTH 14 0
BBX 14 20 0 -5
BITMAP
0000
0000
0000
0000
0FE0
3030
3030
0070
01C0
0300
0300
0000
0300
0FC0
0300
0000
0000
0000
0000
0000
ENDCHAR

STARTCHAR at
ENCODING 64
SWIDTH 723 0
DWIDTH 14 0
BBX 14 20 0 -5
BITMAP
0000
0000
0000
1FC0
3060
6060
6060
63E0
6660
6660
6660
6660
63F8
6000
3000
3818
0FE0
0000
0000
0000
ENDCHAR

STARTCHAR A
ENCODING 65
SWIDTH 723 0
DWIDTH 14 0
BBX 14 20 0 -5
BITMAP
0000
0000
0000
0000
0780
0780
0CC0
0CC0
0CC0
1860
1860
1FE0
3030
3030
FCFC
0000
0000
0000
0000
0000
ENDCHAR

STARTCHAR B
ENCODING 66
SWIDTH 723 0
DWIDTH 14 0
BBX 14 20 0 -5
BITMAP
0000
0000
0000
0000
7FF0
1818
1818
1818
1818
1FF0
1818
1818
1818
1818
7FF0
0000
0000
0000
0000
0000
ENDCHAR

STARTCHAR C
ENCODING 67
SWIDTH 723 0
DWIDTH 14 0
BBX 14 20 0 -5
BITMAP
0000
0000
0000
0000
0FB0
1870
3030
3000
3000
3000
3000
3000
3000
1830
0FC0
0000
0000
0000
0000
0000
ENDCHAR

STARTCHAR D
ENCODING 68
SWIDTH 723 0
DWIDTH 14 0
BBX 14 20 0 -5
BITMAP
0000
0000
0000
0000
7FE0
1830
1818
1818
1818
1818
1818
1818
1818
1830
7FE0
0000
0000
0000
0000
0000
ENDCHAR

STARTCHAR E
ENCODING 69
SWIDTH 723 0
DWIDTH 14 0
BBX 14 20 0 -5
BITMAP
0000
0000
0000
0000
7FF8
1818
1818
1800
1840
1FC0
1840
1800
1818
1818
7FF8
0000
0000
0000
0000
0000
ENDCHAR

STARTCHAR F
ENCODING 70
SWIDTH 723 0
DWIDTH 14 0
BBX 14 20 0 -5
BITMAP
0000
0000
0000
0000
7FF8
1818
1818
1800
1840
1FC0
1840
1800
1800
1800
7E00
0000
0000
0000
0000
0000
ENDCHAR

STARTCHAR G
ENCODING 71
SWIDTH 723 0
DWIDTH 14 0
BBX 14 20 0 -5
BITMAP
0000
0000
0000
0000
1F60
30E0
6060
6000
6000
6000
61F0
6060
6060
3060
1FC0
0000
0000
0000
0000
0000
ENDCHAR

STARTCHAR H
ENCODING 72
SWIDTH 723 0
DWIDTH 14 0
BBX 14 20 0 -5
BITMAP
0000
0000
0000
0000
FCFC
3030
3030
3030
3030
3FF0
3030
3030
3030
3030
FCFC
0000
0000
0000
0000
0000
ENDCHAR

STARTCHAR I
ENCODING 73
SWIDTH 723 0
DWIDTH 14 0
BBX 14 20 0 -5
BITMAP
0000
0000
0000
0000
3FF0
0300
0300
0300
0300
0300
0300
0300
0300
0300
3FF0
0000
0000
0000
0000
0000
ENDCHAR

STARTCHAR J
ENCODING 74
SWIDTH 723 0
DWIDTH 14 0
BBX 14 20 0 -5
BITMAP
0000
0000
0000
0000
07F8
0060
0060
0060
0060
0060
6060
6060
6060
70C0
1F80
0000
0000
0000
0000
0000
ENDCHAR

STARTCHAR K
ENCODING 75
SWIDTH 723 0
DWIDTH 14 0
BBX 14 20 0 -5
BITMAP
0000
0000
0000
0000
FC3C
3060
30C0
3180
3300
3780
38C0
3060
3060
3030
FC3C
0000
0000
0000
0000
0000
ENDCHAR

STARTCHAR L
ENCODING 76
SWIDTH 723 0
DWIDTH 14 0
BBX 14 20 0 -5
BITMAP
0000
0000
0000
0000
7E00
1800
1800
1800
1800
1800
1800
1818
1818
1818
7FF8
0000
0000
0000
0000
0000
ENDCHAR

STARTCHAR M
ENCODING 77
SWIDTH 723 0
DWIDTH 14 0
BBX 14 20 0 -5
BITMAP
0000
0000
0000
0000
F03C
3030
3870
3870
34B0
34B0
3330
3330
3030
3030
FCFC
0000
0000
0000
0000
0000
ENDCHAR

STARTCHAR N
ENCODING 78
SWIDTH 723 0
DWIDTH 14 0
BBX 14 20 0 -5
BITMAP
0000
0000
0000
0000
F8FC
3830
3C30
3630
3230
3330
31B0
30B0
30F0
3070
FC30
0000
0000
0000
0000
0000
ENDCHAR

STARTCHAR O
ENCODING 79
SWIDTH 723 0
DWIDTH 14 0
BBX 14 20 0 -5
BITMAP
0000
0000
0000
0000
0FC0
1860
3030
3030
3030
3030
3030
3030
3030
1860
0FC0
0000
0000
0000
0000
0000
ENDCHAR

STARTCHAR P
ENCODING 80
SWIDTH 723 0
DWIDTH 14 0
BBX 14 20 0 -5
BITMAP
0000
0000
0000
0000
7FF0
1818
1818
1818
1818
1818
1FF0
1800
1800
1800
7E00
0000
0000
0000
0000
0000
ENDCHAR

STARTCHAR Q
ENCODING 81
SWIDTH 723 0
DWIDTH 14 0
BBX 14 20 0 -5
BITMAP
0000
0000
0000
0000
0FC0
1860
3030
3030
3030
3030
3030
3030
3030
1860
0FC0
0400
1F30
18F0
0000
0000
ENDCHAR

STARTCHAR R
ENCODING 82
SWIDTH 723 0
DWIDTH 14 0
BBX 14 20 0 -5
BITMAP
0000
0000
0000
0000
FFE0
3030
3030
3030
3030
3FE0
30C0
3060
3060
3030
FC3C
0000
0000
0000
0000
0000
ENDCHAR

STARTCHAR S
ENCODING 83
SWIDTH 723 0
DWIDTH 14 0
BBX 14 20 0 -5
BITMAP
0000
0000
0000
0000
0FB0
3870
3030
3000
3800
1FE0
0070
3030
3030
3870
37E0
0000
0000
0000
0000
0000
ENDCHAR

STARTCHAR T
ENCODING 84
SWIDTH 723 0
DWIDTH 14 0
BBX 14 20 0 -5
BITMAP
0000
0000
0000
0000
7FF8
6318
6318
6318
6318
0300
0300
0300
0300
0300
1FE0
0000
0000
0000
0000
0000
ENDCHAR

STARTCHAR U
ENCODING 85
SWIDTH 723 0
DWIDTH 14 0
BBX 14 20 0 -5
BITMAP
0000
0000
0000
0000
FCFC
3030
3030
3030
3030
3030
3030
3030
3030
1860
0FC0
0000
0000
0000
0000
0000
ENDCHAR

STARTCHAR V
ENCODING 86
SWIDTH 723 0
DWIDTH 14 0
BBX 14 20 0 -5
BITMAP
0000
0000
0000
0000
FCFC
3030
3030
1860
1860
1860
0CC0
0CC0
0480
0780
0300
0000
0000
0000
0000
0000
ENDCHAR

STARTCHAR W
ENCODING 87
SWIDTH 723 0
DWIDTH 14 0
BBX 14 20 0 -5
BITMAP
0000
0000
0000
0000
F03C
C00C
C30C
C30C
C78C
6498
6CD8
6858
7878
3030
3030
0000
0000
0000
0000
0000
ENDCHAR

STARTCHAR X
ENCODING 88
SWIDTH 723 0
DWIDTH 14 0
BBX 14 20 0 -5
BITMAP
0000
0000
0000
0000
F03C
3030
1860
0CC0
0780
0300
0780
0CC0
1860
3030
F03C
0000
0000
0000
0000
0000
ENDCHAR

STARTCHAR Y
ENCODING 89
SWIDTH 723 0
DWIDTH 14 0
BBX 14 20 0 -5
BITMAP
0000
0000
0000
0000
FCFC
3030
1860
1860
0CC0
0480
0780
0300
0300
0300
3FF0
0000
0000
0000
0000
0000
ENDCHAR

STARTCHAR Z
ENCODING 90
SWIDTH 723 0
DWIDTH 14 0
BBX 14 20 0 -5
BITMAP
0000
0000
0000
0000
3FF0
3030
3060
30C0
0180
0300
0600
0C30
1830
3030
3FF0
0000
0000
0000
0000
0000
ENDCHAR

STARTCHAR bracketleft
ENCODING 91
SWIDTH 723 0
DWIDTH 14 0
BBX 14 20 0 -5
BITMAP
0000
0000
0FC0
0C00
0C00
0C00
0C00
0C00
0C00
0C00
0C00
0C00
0C00
0C00
0C00
0C00
0C00
0FC0
0000
0000
ENDCHAR

STARTCHAR backslash
ENCODING 92
SWIDTH 723 0
DWIDTH 14 0
BBX 14 20 0 -5
BITMAP
0000
0000
0000
3000
3000
3800
1800
0C00
0E00
0600
0700
0300
0180
01C0
00C0
0000
0000
0000
0000
0000
ENDCHAR

STARTCHAR bracketright
ENCODING 93
SWIDTH 723 0
DWIDTH 14 0
BBX 14 20 0 -5
BITMAP
0000
0000
0FC0
00C0
00C0
00C0
00C0
00C0
00C0
00C0
00C0
00C0
00C0
00C0
00C0
00C0
00C0
0FC0
0000
0000
ENDCHAR

STARTCHAR asciicircum
ENCODING 94
SWIDTH 723 0
DWIDTH 14 0
BBX 14 20 0 -5
BITMAP
0000
0000
0300
0FC0
3030
0000
0000
0000
0000
0000
0000
0000
0000
0000
0000
0000
0000
0000
0000
0000
ENDCHAR

STARTCHAR underscore
ENCODING 95
SWIDTH 723 0
DWIDTH 14 0
BBX 14 20 0 -5
BITMAP
0000
0000
0000
0000
0000
0000
0000
0000
0000
0000
0000
0000
0000
0000
0000
FFFC
0000
0000
0000
0000
ENDCHAR

STARTCHAR quoteleft
ENCODING 96
SWIDTH 723 0
DWIDTH 14 0
BBX 14 20 0 -5
BITMAP
0000
0000
0E00
0300
0180
00C0
0000
0000
0000
0000
0000
0000
0000
0000
0000
0000
0000
0000
0000
0000
ENDCHAR

STARTCHAR a
ENCODING 97
SWIDTH 723 0
DWIDTH 14 0
BBX 14 20 0 -5
BITMAP
0000
0000
0000
0000
0000
0000
1FC0
6060
0060
1FE0
3060
6060
6060
71E0
3E78
0000
0000
0000
0000
0000
ENDCHAR

STARTCHAR b
ENCODING 98
SWIDTH 723 0
DWIDTH 14 0
BBX 14 20 0 -5
BITMAP
0000
0000
0000
7800
1800
1800
1BE0
1C30
1818
1818
1818
1818
1818
1C30
7BE0
0000
0000
0000
0000
0000
ENDCHAR

STARTCHAR c
ENCODING 99
SWIDTH 723 0
DWIDTH 14 0
BBX 14 20 0 -5
BITMAP
0000
0000
0000
0000
0000
0000
0FB0
1870
3030
3030
3000
3000
3000
1830
0FC0
0000
0000
0000
0000
0000
ENDCHAR

STARTCHAR d
ENCODING 100
SWIDTH 723 0
DWIDTH 14 0
BBX 14 20 0 -5
BITMAP
0000
0000
0000
01E0
0060
0060
1F60
30E0
6060
6060
6060
6060
6060
30E0
1F78
0000
0000
0000
0000
0000
ENDCHAR

STARTCHAR e
ENCODING 101
SWIDTH 723 0
DWIDTH 14 0
BBX 14 20 0 -5
BITMAP
0000
0000
0000
0000
0000
0000
0FC0
1860
3030
3030
3FF0
3000
3000
1830
0FC0
0000
0000
0000
0000
0000
ENDCHAR

STARTCHAR f
ENCODING 102
SWIDTH 723 0
DWIDTH 14 0
BBX 14 20 0 -5
BITMAP
0000
0000
0000
03F0
0600
0600
0600
3FF0
0600
0600
0600
0600
0600
0600
3FE0
0000
0000
0000
0000
0000
ENDCHAR

STARTCHAR g
ENCODING 103
SWIDTH 723 0
DWIDTH 14 0
BBX 14 20 0 -5
BITMAP
0000
0000
0000
0000
0000
0000
1F78
30E0
6060
6060
6060
6060
6060
30E0
1F60
0060
0060
00C0
7F80
0000
ENDCHAR

STARTCHAR h
ENCODING 104
SWIDTH 723 0
DWIDTH 14 0
BBX 14 20 0 -5
BITMAP
0000
0000
0000
F000
3000
3000
33C0
3C60
3030
3030
3030
3030
3030
3030
FCFC
0000
0000
0000
0000
0000
ENDCHAR

STARTCHAR i
ENCODING 105
SWIDTH 723 0
DWIDTH 14 0
BBX 14 20 0 -5
BITMAP
0000
0000
0300
0300
0000
0000
3F00
0300
0300
0300
0300
0300
0300
0300
3FF0
0000
0000
0000
0000
0000
ENDCHAR

STARTCHAR j
ENCODING 106
SWIDTH 723 0
DWIDTH 14 0
BBX 14 20 0 -5
BITMAP
0000
0000
0060
0060
0000
0000
1FE0
0060
0060
0060
0060
0060
0060
0060
0060
0060
0060
00C0
1F80
0000
ENDCHAR

STARTCHAR k
ENCODING 107
SWIDTH 723 0
DWIDTH 14 0
BBX 14 20 0 -5
BITMAP
0000
0000
0000
7800
1800
1800
1878
18C0
1980
1F00
1B00
1980
18C0
1860
7878
0000
0000
0000
0000
0000
ENDCHAR

STARTCHAR l
ENCODING 108
SWIDTH 723 0
DWIDTH 14 0
BBX 14 20 0 -5
BITMAP
0000
0000
0000
3F00
0300
0300
0300
0300
0300
0300
0300
0300
0300
0300
3FF0
0000
0000
0000
0000
0000
ENDCHAR

STARTCHAR m
ENCODING 109
SWIDTH 723 0
DWIDTH 14 0
BBX 14 20 0 -5
BITMAP
0000
0000
0000
0000
0000
0000
F6E0
3B30
3330
3330
3330
3330
3330
3330
F3BC
0000
0000
0000
0000
0000
ENDCHAR

STARTCHAR n
ENCODING 110
SWIDTH 723 0
DWIDTH 14 0
BBX 14 20 0 -5
BITMAP
0000
0000
0000
0000
0000
0000
F3E0
3C70
3030
3030
3030
3030
3030
3030
FCFC
0000
0000
0000
0000
0000
ENDCHAR

STARTCHAR o
ENCODING 111
SWIDTH 723 0
DWIDTH 14 0
BBX 14 20 0 -5
BITMAP
0000
0000
0000
0000
0000
0000
0FC0
1860
3030
3030
3030
3030
3030
1860
0FC0
0000
0000
0000
0000
0000
ENDCHAR

STARTCHAR p
ENCODING 112
SWIDTH 723 0
DWIDTH 14 0
BBX 14 20 0 -5
BITMAP
0000
0000
0000
0000
0000
0000
7BE0
1C30
1818
1818
1818
1818
1818
1C30
1BE0
1800
1800
1800
7F80
0000
ENDCHAR

STARTCHAR q
ENCODING 113
SWIDTH 723 0
DWIDTH 14 0
BBX 14 20 0 -5
BITMAP
0000
0000
0000
0000
0000
0000
1F78
30E0
6060
6060
6060
6060
6060
30E0
1F60
0060
0060
0060
07F8
0000
ENDCHAR

STARTCHAR r
ENCODING 114
SWIDTH 723 0
DWIDTH 14 0
BBX 14 20 0 -5
BITMAP
0000
0000
0000
0000
0000
0000
79F0
1E38
1800
1800
1800
1800
1800
1800
7FC0
0000
0000
0000
0000
0000
ENDCHAR

STARTCHAR s
ENCODING 115
SWIDTH 723 0
DWIDTH 14 0
BBX 14 20 0 -5
BITMAP
0000
0000
0000
0000
0000
0000
0FB0
3870
3030
3000
1FE0
0030
3030
3830
37E0
0000
0000
0000
0000
0000
ENDCHAR

STARTCHAR t
ENCODING 116
SWIDTH 723 0
DWIDTH 14 0
BBX 14 20 0 -5
BITMAP
0000
0000
0000
1800
1800
1800
7FE0
1800
1800
1800
1800
1800
1800
1C38
07E0
0000
0000
0000
0000
0000
ENDCHAR

STARTCHAR u
ENCODING 117
SWIDTH 723 0
DWIDTH 14 0
BBX 14 20 0 -5
BITMAP
0000
0000
0000
0000
0000
0000
F0F0
3030
3030
3030
3030
3030
3030
18F0
0F3C
0000
0000
0000
0000
0000
ENDCHAR

STARTCHAR v
ENCODING 118
SWIDTH 723 0
DWIDTH 14 0
BBX 14 20 0 -5
BITMAP
0000
0000
0000
0000
0000
0000
FCFC
3030
3030
1860
1860
0CC0
0CC0
0780
0300
0000
0000
0000
0000
0000
ENDCHAR

STARTCHAR w
ENCODING 119
SWIDTH 723 0
DWIDTH 14 0
BBX 14 20 0 -5
BITMAP
0000
0000
0000
0000
0000
0000
F03C
C00C
C00C
4308
6318
6798
6CD8
3870
3030
0000
0000
0000
0000
0000
ENDCHAR

STARTCHAR x
ENCODING 120
SWIDTH 723 0
DWIDTH 14 0
BBX 14 20 0 -5
BITMAP
0000
0000
0000
0000
0000
0000
7878
1860
0CC0
0780
0300
0780
0CC0
1860
7878
0000
0000
0000
0000
0000
ENDCHAR

STARTCHAR y
ENCODING 121
SWIDTH 723 0
DWIDTH 14 0
BBX 14 20 0 -5
BITMAP
0000
0000
0000
0000
0000
0000
FCFC
3030
3030
1860
1860
0CC0
0CC0
0780
0300
0300
0600
0600
7F80
0000
ENDCHAR

STARTCHAR z
ENCODING 122
SWIDTH 723 0
DWIDTH 14 0
BBX 14 20 0 -5
BITMAP
0000
0000
0000
0000
0000
0000
3FF0
3060
30C0
0180
0300
0600
0C30
1830
3FF0
0000
0000
0000
0000
0000
ENDCHAR

STARTCHAR braceleft
ENCODING 123
SWIDTH 723 0
DWIDTH 14 0
BBX 14 20 0 -5
BITMAP
0000
0000
01C0
0300
0300
0300
0300
0300
0300
1E00
0300
0300
0300
0300
0300
0300
0300
01C0
0000
0000
ENDCHAR

STARTCHAR bar
ENCODING 124
SWIDTH 723 0
DWIDTH 14 0
BBX 14 20 0 -5
BITMAP
0000
0000
0300
0300
0300
0300
0300
0300
0300
0300
0300
0300
0300
0300
0300
0300
0300
0000
0000
0000
ENDCHAR

STARTCHAR braceright
ENCODING 125
SWIDTH 723 0
DWIDTH 14 0
BBX 14 20 0 -5
BITMAP
0000
0000
1C00
0600
0600
0600
0600
0600
0600
03C0
0600
0600
0600
0600
0600
0600
0600
1C00
0000
0000
ENDCHAR

STARTCHAR asciitilde
ENCODING 126
SWIDTH 723 0
DWIDTH 14 0
BBX 14 20 0 -5
BITMAP
0000
0000
1C30
3330
30E0
0000
0000
0000
0000
0000
0000
0000
0000
0000
0000
0000
0000
0000
0000
0000
ENDCHAR

STARTCHAR space
ENCODING 160
SWIDTH 723 0
DWIDTH 14 0
BBX 14 20 0 -5
BITMAP
0000
0000
0000
0000
0000
0000
0000
0000
0000
0000
0000
0000
0000
0000
0000
0000
0000
0000
0000
0000
ENDCHAR

STARTCHAR exclamdown
ENCODING 161
SWIDTH 723 0
DWIDTH 14 0
BBX 14 20 0 -5
BITMAP
0000
0000
0000
0000
0300
0FC0
0300
0000
0300
0300
0300
0300
0300
0300
0300
0000
0000
0000
0000
0000
ENDCHAR

STARTCHAR cent
ENCODING 162
SWIDTH 723 0
DWIDTH 14 0
BBX 14 20 0 -5
BITMAP
0000
0000
0000
0000
0300
0300
0FB0
1870
3030
3000
3000
3000
1870
0FC0
0300
0300
0000
0000
0000
0000
ENDCHAR

STARTCHAR sterling
ENCODING 163
SWIDTH 723 0
DWIDTH 14 0
BBX 14 20 0 -5
BITMAP
0000
0000
0000
0000
0380
0E60
0C60
0C00
0400
3FE0
0600
0600
0600
1F98
61F0
0000
0000
0000
0000
0000
ENDCHAR

STARTCHAR currency
ENCODING 164
SWIDTH 723 0
DWIDTH 14 0
BBX 14 20 0 -5
BITMAP
0000
0000
0000
0000
0000
0000
3030
0FC0
3030
3030
3030
0FC0
3030
0000
0000
0000
0000
0000
0000
0000
ENDCHAR

STARTCHAR yen
ENCODING 165
SWIDTH 723 0
DWIDTH 14 0
BBX 14 20 0 -5
BITMAP
0000
0000
0000
0000
FCFC
3030
1860
F87C
0CC0
0480
FFFC
0300
0300
0300
3FF0
0000
0000
0000
0000
0000
ENDCHAR

STARTCHAR brokenbar
ENCODING 166
SWIDTH 723 0
DWIDTH 14 0
BBX 14 20 0 -5
BITMAP
0000
0000
0300
0300
0300
0300
0300
0300
0300
0000
0000
0000
0300
0300
0300
0300
0300
0300
0300
0000
ENDCHAR

STARTCHAR section
ENCODING 167
SWIDTH 723 0
DWIDTH 14 0
BBX 14 20 0 -5
BITMAP
0000
0000
0000
0000
03F0
0C30
0C00
0C00
3700
31C0
3070
1C30
0730
01C0
00C0
30C0
3F80
0000
0000
0000
ENDCHAR

STARTCHAR dieresis
ENCODING 168
SWIDTH 723 0
DWIDTH 14 0
BBX 14 20 0 -5
BITMAP
0000
0000
3030
3030
0000
0000
0000
0000
0000
0000
0000
0000
0000
0000
0000
0000
0000
0000
0000
0000
ENDCHAR

STARTCHAR copyright
ENCODING 169
SWIDTH 723 0
DWIDTH 14 0
BBX 14 20 0 -5
BITMAP
0000
0000
0000
0000
0000
0FC0
3030
C78C
CC4C
CC0C
CC0C
CC4C
C78C
3030
0FC0
0000
0000
0000
0000
0000
ENDCHAR

STARTCHAR ordfeminine
ENCODING 170
SWIDTH 723 0
DWIDTH 14 0
BBX 14 20 0 -5
BITMAP
0000
0000
0000
0000
1F80
0060
0FE0
3060
31E0
1F60
0000
0000
3FE0
0000
0000
0000
0000
0000
0000
0000
ENDCHAR

STARTCHAR guillemotleft
ENCODING 171
SWIDTH 723 0
DWIDTH 14 0
BBX 14 20 0 -5
BITMAP
0000
0000
0000
0000
0000
0000
0000
0000
0C30
1860
30C0
71C0
30C0
1860
0C30
0000
0000
0000
0000
0000
ENDCHAR

STARTCHAR logicalnot
ENCODING 172
SWIDTH 723 0
DWIDTH 14 0
BBX 14 20 0 -5
BITMAP
0000
0000
0000
0000
0000
0000
0000
0000
0000
7FF8
0018
0018
0018
0018
0000
0000
0000
0000
0000
0000
ENDCHAR

STARTCHAR hyphen
ENCODING 173
SWIDTH 723 0
DWIDTH 14 0
BBX 14 20 0 -5
BITMAP
0000
0000
0000
0000
0000
0000
0000
0000
0000
7FF0
0000
0000
0000
0000
0000
0000
0000
0000
0000
0000
ENDCHAR

STARTCHAR registered
ENCODING 174
SWIDTH 723 0
DWIDTH 14 0
BBX 14 20 0 -5
BITMAP
0000
0000
0000
0000
0000
0FC0
3030
CF8C
CCCC
CCCC
CF0C
CCCC
CCCC
3030
0FC0
0000
0000
0000
0000
0000
ENDCHAR

STARTCHAR macron
ENCODING 175
SWIDTH 723 0
DWIDTH 14 0
BBX 14 20 0 -5
BITMAP
0000
0000
0000
0FC0
0000
0000
0000
0000
0000
0000
0000
0000
0000
0000
0000
0000
0000
0000
0000
0000
ENDCHAR

STARTCHAR degree
ENCODING 176
SWIDTH 723 0
DWIDTH 14 0
BBX 14 20 0 -5
BITMAP
0000
0000
0000
0000
1FE0
3030
3030
3030
1FE0
0000
0000
0000
0000
0000
0000
0000
0000
0000
0000
0000
ENDCHAR

STARTCHAR plusminus
ENCODING 177
SWIDTH 723 0
DWIDTH 14 0
BBX 14 20 0 -5
BITMAP
0000
0000
0000
0000
0000
0300
0300
0300
3FF0
0300
0300
0300
0000
0000
3FF0
0000
0000
0000
0000
0000
ENDCHAR

STARTCHAR twosuperior
ENCODING 178
SWIDTH 723 0
DWIDTH 14 0
BBX 14 20 0 -5
BITMAP
0000
0000
0000
0000
07C0
1830
0030
00C0
0300
0C30
3FF0
0000
0000
0000
0000
0000
0000
0000
0000
0000
ENDCHAR

STARTCHAR threesuperior
ENCODING 179
SWIDTH 723 0
DWIDTH 14 0
BBX 14 20 0 -5
BITMAP
0000
0000
0000
0000
0FC0
3030
0030
03C0
0030
3030
0FC0
0000
0000
0000
0000
0000
0000
0000
0000
0000
ENDCHAR

STARTCHAR acute
ENCODING 180
SWIDTH 723 0
DWIDTH 14 0
BBX 14 20 0 -5
BITMAP
0000
0000
00E0
0380
0C00
0000
0000
0000
0000
0000
0000
0000
0000
0000
0000
0000
0000
0000
0000
0000
ENDCHAR

STARTCHAR mu
ENCODING 181
SWIDTH 723 0
DWIDTH 14 0
BBX 14 20 0 -5
BITMAP
0000
0000
0000
0000
0000
0000
0C30
0C30
0C30
1860
1860
1860
30C0
30C0
3F70
2000
6000
6000
6000
0000
ENDCHAR

STARTCHAR paragraph
ENCODING 182
SWIDTH 723 0
DWIDTH 14 0
BBX 14 20 0 -5
BITMAP
0000
0000
0000
0000
1FF8
3E60
7E60
7E60
7E60
3E60
1E60
0660
0660
0660
0660
0660
1E78
0000
0000
0000
ENDCHAR

STARTCHAR periodcentered
ENCODING 183
SWIDTH 723 0
DWIDTH 14 0
BBX 14 20 0 -5
BITMAP
0000
0000
0000
0000
0000
0000
0000
0000
0300
0FC0
0300
0000
0000
0000
0000
0000
0000
0000
0000
0000
ENDCHAR

STARTCHAR cedilla
ENCODING 184
SWIDTH 723 0
DWIDTH 14 0
BBX 14 20 0 -5
BITMAP
0000
0000
0000
0000
0000
0000
0000
0000
0000
0000
0000
0000
0000
0000
0000
0C00
0F80
00C0
1F80
0000
ENDCHAR

STARTCHAR onesuperior
ENCODING 185
SWIDTH 723 0
DWIDTH 14 0
BBX 14 20 0 -5
BITMAP
0000
0000
0000
0000
0F00
0300
0300
0300
0300
0300
0FC0
0000
0000
0000
0000
0000
0000
0000
0000
0000
ENDCHAR

STARTCHAR ordmasculine
ENCODING 186
SWIDTH 723 0
DWIDTH 14 0
BBX 14 20 0 -5
BITMAP
0000
0000
0000
0000
0FC0
3030
3030
3030
3030
0FC0
0000
0000
3FF0
0000
0000
0000
0000
0000
0000
0000
ENDCHAR

STARTCHAR guillemotright
ENCODING 187
SWIDTH 723 0
DWIDTH 14 0
BBX 14 20 0 -5
BITMAP
0000
0000
0000
0000
0000
0000
0000
0000
6180
30C0
1860
1C70
1860
30C0
6180
0000
0000
0000
0000
0000
ENDCHAR

STARTCHAR onequarter
ENCODING 188
SWIDTH 723 0
DWIDTH 14 0
BBX 14 20 0 -5
BITMAP
0000
0000
0000
0000
7800
1800
1800
1800
1800
7E30
01C0
0E00
70E0
0160
0260
07F0
0060
0060
0000
0000
ENDCHAR

STARTCHAR onehalf
ENCODING 189
SWIDTH 723 0
DWIDTH 14 0
BBX 14 20 0 -5
BITMAP
0000
0000
0000
0000
7800
1800
1800
1800
1800
7E30
01C0
0E00
71E0
0618
0018
0060
0180
07F8
0000
0000
ENDCHAR

STARTCHAR threequarters
ENCODING 190
SWIDTH 723 0
DWIDTH 14 0
BBX 14 20 0 -5
BITMAP
0000
0000
0000
0000
3800
C600
1800
0600
8600
780C
0070
0380
1C38
0058
0098
01FC
0018
0018
0000
0000
ENDCHAR

STARTCHAR questiondown
ENCODING 191
SWIDTH 723 0
DWIDTH 14 0
BBX 14 20 0 -5
BITMAP
0000
0000
0000
0000
0300
0FC0
0300
0000
0300
0300
0E00
3800
3030
3030
1FC0
0000
0000
0000
0000
0000
ENDCHAR

STARTCHAR Agrave
ENCODING 192
SWIDTH 723 0
DWIDTH 14 0
BBX 14 20 0 -5
BITMAP
1C00
0700
00C0
0000
0780
0780
0CC0
0CC0
0CC0
1860
1860
1FE0
3030
3030
FCFC
0000
0000
0000
0000
0000
ENDCHAR

STARTCHAR Aacute
ENCODING 193
SWIDTH 723 0
DWIDTH 14 0
BBX 14 20 0 -5
BITMAP
00E0
0380
0C00
0000
0780
0780
0CC0
0CC0
0CC0
1860
1860
1FE0
3030
3030
FCFC
0000
0000
0000
0000
0000
ENDCHAR

STARTCHAR Acircumflex
ENCODING 194
SWIDTH 723 0
DWIDTH 14 0
BBX 14 20 0 -5
BITMAP
0300
0CC0
3030
0000
0780
0780
0CC0
0CC0
0CC0
1860
1860
1FE0
3030
3030
FCFC
0000
0000
0000
0000
0000
ENDCHAR

STARTCHAR Atilde
ENCODING 195
SWIDTH 723 0
DWIDTH 14 0
BBX 14 20 0 -5
BITMAP
0E30
31C0
0000
0000
0780
0780
0CC0
0CC0
0CC0
1860
1860
1FE0
3030
3030
FCFC
0000
0000
0000
0000
0000
ENDCHAR

STARTCHAR Adieresis
ENCODING 196
SWIDTH 723 0
DWIDTH 14 0
BBX 14 20 0 -5
BITMAP
3030
3030
0000
0000
0780
0780
0CC0
0CC0
0CC0
1860
1860
1FE0
3030
3030
FCFC
0000
0000
0000
0000
0000
ENDCHAR

STARTCHAR Aring
ENCODING 197
SWIDTH 723 0
DWIDTH 14 0
BBX 14 20 0 -5
BITMAP
0780
0840
0840
0780
0780
0780
0CC0
0CC0
0CC0
1860
1860
1FE0
3030
3030
FCFC
0000
0000
0000
0000
0000
ENDCHAR

STARTCHAR AE
ENCODING 198
SWIDTH 723 0
DWIDTH 14 0
BBX 14 20 0 -5
BITMAP
0000
0000
0000
0000
1FFC
1B0C
1B0C
1B00
3308
33F8
3F08
3300
630C
630C
E7FC
0000
0000
0000
0000
0000
ENDCHAR

STARTCHAR Ccedilla
ENCODING 199
SWIDTH 723 0
DWIDTH 14 0
BBX 14 20 0 -5
BITMAP
0000
0000
0000
0000
0FB0
1870
3030
3000
3000
3000
3000
3000
3000
1830
0FC0
0C00
0F80
00C0
1F80
0000
ENDCHAR

STARTCHAR Egrave
ENCODING 200
SWIDTH 723 0
DWIDTH 14 0
BBX 14 20 0 -5
BITMAP
0E00
0380
0060
0000
7FF8
1818
1818
1800
1840
1FC0
1840
1800
1818
1818
7FF8
0000
0000
0000
0000
0000
ENDCHAR

STARTCHAR Eacute
ENCODING 201
SWIDTH 723 0
DWIDTH 14 0
BBX 14 20 0 -5
BITMAP
00E0
0380
0C00
0000
7FF8
1818
1818
1800
1840
1FC0
1840
1800
1818
1818
7FF8
0000
0000
0000
0000
0000
ENDCHAR

STARTCHAR Ecircumflex
ENCODING 202
SWIDTH 723 0
DWIDTH 14 0
BBX 14 20 0 -5
BITMAP
0300
0CC0
3030
0000
7FF8
1818
1818
1800
1840
1FC0
1840
1800
1818
1818
7FF8
0000
0000
0000
0000
0000
ENDCHAR

STARTCHAR Edieresis
ENCODING 203
SWIDTH 723 0
DWIDTH 14 0
BBX 14 20 0 -5
BITMAP
1818
1818
0000
0000
7FF8
1818
1818
1800
1840
1FC0
1840
1800
1818
1818
7FF8
0000
0000
0000
0000
0000
ENDCHAR

STARTCHAR Igrave
ENCODING 204
SWIDTH 723 0
DWIDTH 14 0
BBX 14 20 0 -5
BITMAP
0E00
0380
0060
0000
3FF0
0300
0300
0300
0300
0300
0300
0300
0300
0300
3FF0
0000
0000
0000
0000
0000
ENDCHAR

STARTCHAR Iacute
ENCODING 205
SWIDTH 723 0
DWIDTH 14 0
BBX 14 20 0 -5
BITMAP
00E0
0380
0C00
0000
3FF0
0300
0300
0300
0300
0300
0300
0300
0300
0300
3FF0
0000
0000
0000
0000
0000
ENDCHAR

STARTCHAR Icircumflex
ENCODING 206
SWIDTH 723 0
DWIDTH 14 0
BBX 14 20 0 -5
BITMAP
0300
0CC0
3030
0000
3FF0
0300
0300
0300
0300
0300
0300
0300
0300
0300
3FF0
0000
0000
0000
0000
0000
ENDCHAR

STARTCHAR Idieresis
ENCODING 207
SWIDTH 723 0
DWIDTH 14 0
BBX 14 20 0 -5
BITMAP
3030
3030
0000
0000
3FF0
0300
0300
0300
0300
0300
0300
0300
0300
0300
3FF0
0000
0000
0000
0000
0000
ENDCHAR

STARTCHAR Gbreve
ENCODING 208
SWIDTH 723 0
DWIDTH 14 0
BBX 14 20 0 -5
BITMAP
0000
18C0
0F80
0000
1F60
30E0
6060
6000
6000
6000
61F0
6060
6060
3060
1FC0
0000
0000
0000
0000
0000
ENDCHAR

STARTCHAR Ntilde
ENCODING 209
SWIDTH 723 0
DWIDTH 14 0
BBX 14 20 0 -5
BITMAP
0E30
31C0
0000
0000
F8FC
3830
3C30
3630
3230
3330
31B0
30B0
30F0
3070
FC30
0000
0000
0000
0000
0000
ENDCHAR

STARTCHAR Ograve
ENCODING 210
SWIDTH 723 0
DWIDTH 14 0
BBX 14 20 0 -5
BITMAP
1C00
0700
00C0
0000
0FC0
1860
3030
3030
3030
3030
3030
3030
3030
1860
0FC0
0000
0000
0000
0000
0000
ENDCHAR

STARTCHAR Oacute
ENCODING 211
SWIDTH 723 0
DWIDTH 14 0
BBX 14 20 0 -5
BITMAP
00E0
0380
0C00
0000
0FC0
1860
3030
3030
3030
3030
3030
3030
3030
1860
0FC0
0000
0000
0000
0000
0000
ENDCHAR

STARTCHAR Ocircumflex
ENCODING 212
SWIDTH 723 0
DWIDTH 14 0
BBX 14 20 0 -5
BITMAP
0300
0CC0
3030
0000
0FC0
1860
3030
3030
3030
3030
3030
3030
3030
1860
0FC0
0000
0000
0000
0000
0000
ENDCHAR

STARTCHAR Otilde
ENCODING 213
SWIDTH 723 0
DWIDTH 14 0
BBX 14 20 0 -5
BITMAP
0E30
31C0
0000
0000
0FC0
1860
3030
3030
3030
3030
3030
3030
3030
1860
0FC0
0000
0000
0000
0000
0000
ENDCHAR

STARTCHAR Odieresis
ENCODING 214
SWIDTH 723 0
DWIDTH 14 0
BBX 14 20 0 -5
BITMAP
3030
3030
0000
0000
0FC0
1860
3030
3030
3030
3030
3030
3030
3030
1860
0FC0
0000
0000
0000
0000
0000
ENDCHAR

STARTCHAR multiply
ENCODING 215
SWIDTH 723 0
DWIDTH 14 0
BBX 14 20 0 -5
BITMAP
0000
0000
0000
0000
0000
0000
0000
3030
0CC0
0300
0300
0CC0
3030
0000
0000
0000
0000
0000
0000
0000
ENDCHAR

STARTCHAR Oslash
ENCODING 216
SWIDTH 723 0
DWIDTH 14 0
BBX 14 20 0 -5
BITMAP
0000
0000
0000
0018
0FF0
1870
30F0
30B0
31B0
3330
3230
3630
3C30
3860
3FC0
6000
0000
0000
0000
0000
ENDCHAR

STARTCHAR Ugrave
ENCODING 217
SWIDTH 723 0
DWIDTH 14 0
BBX 14 20 0 -5
BITMAP
1C00
0700
00C0
0000
FCFC
3030
3030
3030
3030
3030
3030
3030
3030
1860
0FC0
0000
0000
0000
0000
0000
ENDCHAR

STARTCHAR Uacute
ENCODING 218
SWIDTH 723 0
DWIDTH 14 0
BBX 14 20 0 -5
BITMAP
00E0
0380
0C00
0000
FCFC
3030
3030
3030
3030
3030
3030
3030
3030
1860
0FC0
0000
0000
0000
0000
0000
ENDCHAR

STARTCHAR Ucircumflex
ENCODING 219
SWIDTH 723 0
DWIDTH 14 0
BBX 14 20 0 -5
BITMAP
0300
0CC0
3030
0000
FCFC
3030
3030
3030
3030
3030
3030
3030
3030
1860
0FC0
0000
0000
0000
0000
0000
ENDCHAR

STARTCHAR Udieresis
ENCODING 220
SWIDTH 723 0
DWIDTH 14 0
BBX 14 20 0 -5
BITMAP
3030
3030
0000
0000
FCFC
3030
3030
3030
3030
3030
3030
3030
3030
1860
0FC0
0000
0000
0000
0000
0000
ENDCHAR

STARTCHAR Idotaccent
ENCODING 221
SWIDTH 723 0
DWIDTH 14 0
BBX 14 20 0 -5
BITMAP
0300
0300
0000
0000
3FF0
0300
0300
0300
0300
0300
0300
0300
0300
0300
3FF0
0000
0000
0000
0000
0000
ENDCHAR

STARTCHAR Scedilla
ENCODING 222
SWIDTH 723 0
DWIDTH 14 0
BBX 14 20 0 -5
BITMAP
0000
0000
0000
0000
0FB0
3870
3030
3000
3800
1FE0
0070
3030
3030
3870
37E0
0380
00C0
0780
0000
0000
ENDCHAR

STARTCHAR germandbls
ENCODING 223
SWIDTH 723 0
DWIDTH 14 0
BBX 14 20 0 -5
BITMAP
0000
0000
0000
07E0
1818
1818
1818
1810
19E0
1818
1818
1818
1818
1818
79E0
0000
0000
0000
0000
0000
ENDCHAR

STARTCHAR agrave
ENCODING 224
SWIDTH 723 0
DWIDTH 14 0
BBX 14 20 0 -5
BITMAP
0000
1C00
0700
00C0
0000
0000
1FC0
6060
0060
1FE0
3060
6060
6060
71E0
3E78
0000
0000
0000
0000
0000
ENDCHAR

STARTCHAR aacute
ENCODING 225
SWIDTH 723 0
DWIDTH 14 0
BBX 14 20 0 -5
BITMAP
0000
01C0
0700
1800
0000
0000
1FC0
6060
0060
1FE0
3060
6060
6060
71E0
3E78
0000
0000
0000
0000
0000
ENDCHAR

STARTCHAR acircumflex
ENCODING 226
SWIDTH 723 0
DWIDTH 14 0
BBX 14 20 0 -5
BITMAP
0000
0300
0CC0
3030
0000
0000
1FC0
6060
0060
1FE0
3060
6060
6060
71E0
3E78
0000
0000
0000
0000
0000
ENDCHAR

STARTCHAR atilde
ENCODING 227
SWIDTH 723 0
DWIDTH 14 0
BBX 14 20 0 -5
BITMAP
0000
0000
1C60
6380
0000
0000
1FC0
6060
0060
1FE0
3060
6060
6060
71E0
3E78
0000
0000
0000
0000
0000
ENDCHAR

STARTCHAR adieresis
ENCODING 228
SWIDTH 723 0
DWIDTH 14 0
BBX 14 20 0 -5
BITMAP
0000
0000
3030
3030
0000
0000
1FC0
6060
0060
1FE0
3060
6060
6060
71E0
3E78
0000
0000
0000
0000
0000
ENDCHAR

STARTCHAR aring
ENCODING 229
SWIDTH 723 0
DWIDTH 14 0
BBX 14 20 0 -5
BITMAP
0000
0F00
30C0
30C0
0F00
0000
1FC0
6060
0060
1FE0
3060
6060
6060
71E0
3E78
0000
0000
0000
0000
0000
ENDCHAR

STARTCHAR ae
ENCODING 230
SWIDTH 723 0
DWIDTH 14 0
BBX 14 20 0 -5
BITMAP
0000
0000
0000
0000
0000
0000
3CF0
C30C
030C
030C
3FFC
C300
C300
C30C
3CF0
0000
0000
0000
0000
0000
ENDCHAR

STARTCHAR ccedilla
ENCODING 231
SWIDTH 723 0
DWIDTH 14 0
BBX 14 20 0 -5
BITMAP
0000
0000
0000
0000
0000
0000
0FB0
1870
3030
3030
3000
3000
3000
1830
0FC0
0C00
07C0
0060
0FC0
0000
ENDCHAR

STARTCHAR egrave
ENCODING 232
SWIDTH 723 0
DWIDTH 14 0
BBX 14 20 0 -5
BITMAP
0000
1C00
0700
00C0
0000
0000
0FC0
1860
3030
3030
3FF0
3000
3000
1830
0FC0
0000
0000
0000
0000
0000
ENDCHAR

STARTCHAR eacute
ENCODING 233
SWIDTH 723 0
DWIDTH 14 0
BBX 14 20 0 -5
BITMAP
0000
00E0
0380
0C00
0000
0000
0FC0
1860
3030
3030
3FF0
3000
3000
1830
0FC0
0000
0000
0000
0000
0000
ENDCHAR

STARTCHAR ecircumflex
ENCODING 234
SWIDTH 723 0
DWIDTH 14 0
BBX 14 20 0 -5
BITMAP
0000
0300
0CC0
3030
0000
0000
0FC0
1860
3030
3030
3FF0
3000
3000
1830
0FC0
0000
0000
0000
0000
0000
ENDCHAR

STARTCHAR edieresis
ENCODING 235
SWIDTH 723 0
DWIDTH 14 0
BBX 14 20 0 -5
BITMAP
0000
0000
3030
3030
0000
0000
0FC0
1860
3030
3030
3FF0
3000
3000
1830
0FC0
0000
0000
0000
0000
0000
ENDCHAR

STARTCHAR igrave
ENCODING 236
SWIDTH 723 0
DWIDTH 14 0
BBX 14 20 0 -5
BITMAP
0000
1C00
0700
00C0
0000
0000
3F00
0300
0300
0300
0300
0300
0300
0300
3FF0
0000
0000
0000
0000
0000
ENDCHAR

STARTCHAR iacute
ENCODING 237
SWIDTH 723 0
DWIDTH 14 0
BBX 14 20 0 -5
BITMAP
0000
00E0
0380
0C00
0000
0000
3F00
0300
0300
0300
0300
0300
0300
0300
3FF0
0000
0000
0000
0000
0000
ENDCHAR

STARTCHAR icircumflex
ENCODING 238
SWIDTH 723 0
DWIDTH 14 0
BBX 14 20 0 -5
BITMAP
0000
0600
1980
6060
0000
0000
3F00
0300
0300
0300
0300
0300
0300
0300
3FF0
0000
0000
0000
0000
0000
ENDCHAR

STARTCHAR idieresis
ENCODING 239
SWIDTH 723 0
DWIDTH 14 0
BBX 14 20 0 -5
BITMAP
0000
0000
3030
3030
0000
0000
3F00
0300
0300
0300
0300
0300
0300
0300
3FF0
0000
0000
0000
0000
0000
ENDCHAR

STARTCHAR gbreve
ENCODING 240
SWIDTH 723 0
DWIDTH 14 0
BBX 14 20 0 -5
BITMAP
0000
0000
0000
18C0
0F80
0000
1F78
30E0
6060
6060
6060
6060
6060
30E0
1F60
0060
0060
00C0
7F80
0000
ENDCHAR

STARTCHAR ntilde
ENCODING 241
SWIDTH 723 0
DWIDTH 14 0
BBX 14 20 0 -5
BITMAP
0000
0000
0E30
31C0
0000
0000
F3E0
3C70
3030
3030
3030
3030
3030
3030
FCFC
0000
0000
0000
0000
0000
ENDCHAR

STARTCHAR ograve
ENCODING 242
SWIDTH 723 0
DWIDTH 14 0
BBX 14 20 0 -5
BITMAP
0000
1C00
0700
00C0
0000
0000
0FC0
1860
3030
3030
3030
3030
3030
1860
0FC0
0000
0000
0000
0000
0000
ENDCHAR

STARTCHAR oacute
ENCODING 243
SWIDTH 723 0
DWIDTH 14 0
BBX 14 20 0 -5
BITMAP
0000
00E0
0380
0C00
0000
0000
0FC0
1860
3030
3030
3030
3030
3030
1860
0FC0
0000
0000
0000
0000
0000
ENDCHAR

STARTCHAR ocircumflex
ENCODING 244
SWIDTH 723 0
DWIDTH 14 0
BBX 14 20 0 -5
BITMAP
0000
0300
0CC0
3030
0000
0000
0FC0
1860
3030
3030
3030
3030
3030
1860
0FC0
0000
0000
0000
0000
0000
ENDCHAR

STARTCHAR otilde
ENCODING 245
SWIDTH 723 0
DWIDTH 14 0
BBX 14 20 0 -5
BITMAP
0000
0000
0E30
31C0
0000
0000
0FC0
1860
3030
3030
3030
3030
3030
1860
0FC0
0000
0000
0000
0000
0000
ENDCHAR

STARTCHAR odieresis
ENCODING 246
SWIDTH 723 0
DWIDTH 14 0
BBX 14 20 0 -5
BITMAP
0000
0000
3030
3030
0000
0000
0FC0
1860
3030
3030
3030
3030
3030
1860
0FC0
0000
0000
0000
0000
0000
ENDCHAR

STARTCHAR divide
ENCODING 247
SWIDTH 723 0
DWIDTH 14 0
BBX 14 20 0 -5
BITMAP
0000
0000
0000
0000
0000
0300
0300
0000
0000
3FF0
0000
0000
0300
0300
0000
0000
0000
0000
0000
0000
ENDCHAR

STARTCHAR oslash
ENCODING 248
SWIDTH 723 0
DWIDTH 14 0
BBX 14 20 0 -5
BITMAP
0000
0000
0000
0000
0000
0000
0FD8
1870
30F0
31B0
3330
3630
3C30
3860
6FC0
0000
0000
0000
0000
0000
ENDCHAR

STARTCHAR ugrave
ENCODING 249
SWIDTH 723 0
DWIDTH 14 0
BBX 14 20 0 -5
BITMAP
0000
1C00
0700
00C0
0000
0000
F0F0
3030
3030
3030
3030
3030
3030
18F0
0F3C
0000
0000
0000
0000
0000
ENDCHAR

STARTCHAR uacute
ENCODING 250
SWIDTH 723 0
DWIDTH 14 0
BBX 14 20 0 -5
BITMAP
0000
00E0
0380
0C00
0000
0000
F0F0
3030
3030
3030
3030
3030
3030
18F0
0F3C
0000
0000
0000
0000
0000
ENDCHAR

STARTCHAR ucircumflex
ENCODING 251
SWIDTH 723 0
DWIDTH 14 0
BBX 14 20 0 -5
BITMAP
0000
0300
0CC0
3030
0000
0000
F0F0
3030
3030
3030
3030
3030
3030
18F0
0F3C
0000
0000
0000
0000
0000
ENDCHAR

STARTCHAR udieresis
ENCODING 252
SWIDTH 723 0
DWIDTH 14 0
BBX 14 20 0 -5
BITMAP
0000
0000
3030
3030
0000
0000
F0F0
3030
3030
3030
3030
3030
3030
18F0
0F3C
0000
0000
0000
0000
0000
ENDCHAR

STARTCHAR dotlessi
ENCODING 253
SWIDTH 723 0
DWIDTH 14 0
BBX 14 20 0 -5
BITMAP
0000
0000
0000
0000
0000
0000
3F00
0300
0300
0300
0300
0300
0300
0300
3FF0
0000
0000
0000
0000
0000
ENDCHAR

STARTCHAR scedilla
ENCODING 254
SWIDTH 723 0
DWIDTH 14 0
BBX 14 20 0 -5
BITMAP
0000
0000
0000
0000
0000
0000
0FB0
3870
3030
3000
1FE0
0030
3030
3830
37E0
0380
00C0
0780
0000
0000
ENDCHAR

STARTCHAR ydieresis
ENCODING 255
SWIDTH 723 0
DWIDTH 14 0
BBX 14 20 0 -5
BITMAP
0000
0000
3030
3030
0000
0000
FCFC
3030
3030
1860
1860
0CC0
0CC0
0780
0300
0300
0600
0600
7F80
0000
ENDCHAR
ENDFONT
